<svg xmlns="http://www.w3.org/2000/svg" viewBox="0 0 511.2 512.14"><defs><style>.cls-1{fill:#6b7280;}.cls-2{fill:#115e59;}.cls-3{fill:#0d9488;}</style></defs><path class="cls-1" d="M180.94,273.46a26.63,26.63,0,0,0,26.6-26.6V233a12.73,12.73,0,0,0-12.71-12.72H167.06A12.74,12.74,0,0,0,154.34,233v13.88A26.63,26.63,0,0,0,180.94,273.46Zm-11.6-38.2h23.2v11.6a11.6,11.6,0,0,1-23.2,0Z"/><path class="cls-1" d="M203.08,350.87a146.56,146.56,0,0,0,62.08-13.73,7.13,7.13,0,0,0,1.4-.65,147.61,147.61,0,0,0,83.95-133C350.51,122.15,284.38,56,203.08,56S55.65,122.15,55.65,203.44q0,3.8.2,7.56v.13C59.87,288.86,124.37,350.87,203.08,350.87Zm0-279.86c73,0,132.43,59.41,132.43,132.43a132.06,132.06,0,0,1-39,93.76A128.81,128.81,0,0,0,76.27,165.29,132.65,132.65,0,0,1,203.08,71Zm-22.14,55.64a113.79,113.79,0,0,1,77.58,197,131.62,131.62,0,0,1-55.44,12.18c-70.34,0-128-55.13-132.18-124.45A113.64,113.64,0,0,1,180.94,126.65Z"/><path class="cls-1" d="M121.4,238.2V226.89a7.5,7.5,0,0,0-15,0V238.2a7.5,7.5,0,0,0,15,0Z"/><path class="cls-1" d="M248,245.7a7.5,7.5,0,0,0,7.5-7.5V226.89a7.5,7.5,0,0,0-15,0V238.2A7.5,7.5,0,0,0,248,245.7Z"/><path class="cls-2" d="M461.7,512.14a49.32,49.32,0,0,1-35.14-14.64L305.41,375.42a49.5,49.5,0,1,1,70.27-69.74L496.83,427.77a49.51,49.51,0,0,1-35.13,84.37Z"/><path class="cls-3" d="M203.23,406.46C91.17,406.46,0,315.29,0,203.23S91.17,0,203.23,0,406.46,91.17,406.46,203.23,315.29,406.46,203.23,406.46Zm0-347.46C123.7,59,59,123.7,59,203.23s64.7,144.23,144.23,144.23,144.23-64.7,144.23-144.23S282.76,59,203.23,59Z"/></svg>
