<?xml version="1.0" encoding="UTF-8"?><svg id="a" xmlns="http://www.w3.org/2000/svg" viewBox="0 0 511.2 512.14"><defs><style>.b{fill:#ffffff;}.c{fill:#ffffff;}.d{fill:#ffffff;}</style></defs><g><path class="b" d="M180.56,280.36c16.14,0,29.28-13.13,29.28-29.28v-15.28c0-7.72-6.28-13.99-13.99-13.99h-30.57c-7.72,0-13.99,6.28-13.99,13.99v15.28c0,16.14,13.13,29.28,29.28,29.28Zm-12.77-42.04h25.53v12.77c0,7.04-5.73,12.77-12.77,12.77s-12.77-5.73-12.77-12.77v-12.77Z"/><path class="b" d="M204.93,365.57c24.4,0,47.55-5.42,68.33-15.11,.53-.18,1.05-.42,1.54-.72,54.6-26.16,92.41-81.97,92.41-146.45,0-89.48-72.8-162.28-162.28-162.28S42.65,113.81,42.65,203.29c0,2.79,.07,5.56,.21,8.32,0,.05,0,.1,0,.15,4.42,85.56,75.42,153.81,162.06,153.81Zm0-308.05c80.38,0,145.77,65.39,145.77,145.77,0,40.28-16.42,76.79-42.92,103.2,9.45-19.26,14.55-40.62,14.55-62.46,0-78.17-63.6-141.77-141.77-141.77-46.8,0-89.2,22.79-115.22,59.04,18.07-59.97,73.81-103.77,139.59-103.77Zm-24.37,61.25c69.07,0,125.26,56.19,125.26,125.26,0,34.67-14.52,67.98-39.86,91.62-18.57,8.6-39.25,13.41-61.02,13.41-77.43,0-140.94-60.68-145.5-136.98,14.46-55,64.08-93.31,121.12-93.31Z"/><path class="b" d="M115.03,241.55v-12.45c0-4.56-3.7-8.26-8.26-8.26s-8.26,3.7-8.26,8.26v12.45c0,4.56,3.7,8.26,8.26,8.26,4.56,0,8.26-3.7,8.26-8.26Z"/><path class="b" d="M254.35,249.81c4.56,0,8.26-3.7,8.26-8.26v-12.45c0-4.56-3.7-8.26-8.26-8.26s-8.26,3.7-8.26,8.26v12.45c0,4.56,3.7,8.25,8.26,8.25Z"/></g><path class="c" d="M461.7,512.14c-12.73,0-25.46-4.88-35.14-14.63l-121.15-122.09c-19.26-19.41-19.14-50.75,.27-70,19.41-19.26,50.75-19.14,70,.27l121.15,122.09c19.26,19.41,19.14,50.75-.27,70-9.65,9.58-22.26,14.36-34.87,14.36Z"/><path class="d" d="M203.23,406.46C91.17,406.46,0,315.29,0,203.23S91.17,0,203.23,0s203.23,91.17,203.23,203.23-91.17,203.23-203.23,203.23Zm0-347.46c-79.53,0-144.23,64.7-144.23,144.23s64.7,144.23,144.23,144.23,144.23-64.7,144.23-144.23S282.76,59,203.23,59Z"/></svg>